<svg xmlns="http://www.w3.org/2000/svg" version="1.1" x="0" y="0" viewBox="0 0 504 216" enable-background="new 0 0 504 216" xml:space="preserve">
  <path fill="#231F20" d="M250.1 90.6H240c-0.3-0.6-0.6-1.7-1-3.3 -2.5 2.8-6.5 4.2-12 4.2 -3.8 0-6.9-0.9-9.4-2.6 -2.9-2.1-4.3-5-4.3-8.9 0-5.6 2.2-9.4 6.6-11.5 2-1 6.1-1.8 12.3-2.6 4.4-0.6 6.6-1.7 6.6-3.5 0-1.6-0.7-2.9-2-3.8 -1.3-0.9-2.9-1.4-4.6-1.4 -1.8 0-3.4 0.5-4.6 1.5 -1.4 1.1-2.3 2.6-2.5 4.5H214.7c0.3-3.3 1-6 2.3-8.1 1.3-2.1 3.4-3.6 6.3-4.8 2.7-1 5.8-1.5 9.2-1.5 11.6 0.1 17.5 5.7 17.5 16.7V90.6zM238.6 70.6c-1.1 0.9-3 1.6-5.7 2.1 -3.1 0.6-5.1 1.1-6 1.6 -1.9 1-2.8 2.7-2.8 5.1 0 3.1 1.6 4.6 4.8 4.6 1.5 0 3-0.3 4.6-1 1.6-0.7 2.8-1.5 3.6-2.5 1.1-1.3 1.6-3.3 1.6-5.9 0-0.5 0-1.1-0.1-2C238.7 71.6 238.6 71 238.6 70.6z"/>
  <path fill="#231F20" d="M290.3 90.6h-10.8V65.8c0-2.9-0.4-4.9-1.3-6.1 -1.1-1.4-3-2.1-5.8-2.1 -5.6 0-8.4 3.2-8.4 9.5v23.5h-10.8V49.6h10.5v3.8c0 1.5 0 2.2 0.1 2.2 0 0 0-0.1 0.1-0.1 1.3-2.3 3.1-4 5.5-5.3 2.4-1.3 4.9-1.9 7.6-1.9 5.4 0 9.4 2.1 11.8 6.4 1.1 2.1 1.7 4.5 1.7 7.4V90.6z"/>
  <path fill="#231F20" d="M331.4 90.6h-12.2l-9-18.4 -5.3 5.5v12.9h-10.8V35.3h10.8v29.8l13.5-15.5h13.3l-13.7 15.1L331.4 90.6z"/>
  <path fill="#231F20" d="M345.6 44.7h-10.8V34.7h10.8V44.7zM345.6 90.6h-10.8V49.6h10.8V90.6z"/>
  <path fill="#231F20" d="M383.1 69.7c0 4.1-0.2 7.2-0.6 9.3 -0.6 3.5-1.8 6.3-3.6 8.3 -2.9 3.2-7 4.8-12.3 4.8 -3.3 0-6.3-0.7-8.9-2.1 -2.9-1.5-5-3.7-6.2-6.4 -1.1-2.5-1.6-5.3-1.6-8.4V38.6h10.8V49.6h22.5v7.8h-22.5v16.8c0 2.1 0.2 3.7 0.5 4.8 0.7 2.5 2.6 3.7 5.7 3.7 1.8 0 3.2-0.5 4.2-1.6 1.4-1.5 2.2-4.8 2.2-9.9v-7.5h10.1V69.7z"/>
  <path fill="#231F20" d="M252.5 149.5c-3.4 2.9-7.7 4.4-13.1 4.4h-24.4V98.6h24.6c5.2 0 9.4 1.2 12.8 3.6 3.2 2.3 5.6 5.5 7.3 9.7 1.5 3.9 2.3 8.3 2.3 13.1 0 4.9-0.8 9.6-2.5 13.9C257.9 143.5 255.5 147 252.5 149.5zM245.3 110.5c-2-1.7-5.6-2.5-10.9-2.5 -1.1 0-2.6 0-4.4 0.1 -1.8 0.1-3 0.1-3.7 0.1v36.2h11.4c4.1 0 7.2-2 9.5-6 2.1-3.5 3.1-7.9 3.1-13C250.3 118.3 248.7 113.4 245.3 110.5z"/>
  <path fill="#231F20" d="M301.8 136.3H273.6c0.3 3.4 1.3 6 3.2 7.8 1.6 1.5 3.6 2.3 6 2.3 1.7 0 3.3-0.4 4.7-1.2s2.3-1.9 2.7-3.3h11.1c-1.2 4.2-3.4 7.4-6.6 9.7 -3.2 2.3-6.9 3.4-11.3 3.4 -13.7 0-20.5-7.4-20.5-22.3 0-6.3 1.7-11.3 5.2-15.1 3.5-3.8 8.3-5.6 14.6-5.6C295.4 111.9 301.8 120 301.8 136.3zM290.7 129.5c-0.3-2.8-1.2-4.9-2.8-6.5 -1.6-1.6-3.5-2.4-5.6-2.4 -2.1 0-3.8 0.7-5.3 2.2 -1.6 1.6-2.7 3.8-3.1 6.7H290.7z"/>
  <path fill="#231F20" d="M341.5 140.9c0 2.9-0.7 5.5-2.2 7.6 -3.1 4.5-8.4 6.7-16 6.7 -5.2 0-9.6-1.2-13.3-3.5 -4.1-2.7-6.2-6.3-6.2-10.8h11.2c0 2 0.9 3.6 2.6 4.7 1.5 1 3.4 1.5 5.7 1.5 2 0 3.7-0.4 5.2-1.2 1.5-0.8 2.2-1.8 2.2-3.1 0-1.7-2.2-3-6.5-4 -6.5-1.5-10.5-2.6-12.2-3.5 -4.4-2.1-6.5-5.3-6.5-9.7 0-2.6 0.6-4.9 1.8-7 1.2-2.1 3.3-3.8 6.2-5 2.9-1.3 6.1-1.9 9.5-1.9 4.6 0 8.5 1.1 11.6 3.3 3.6 2.5 5.5 6 5.8 10.5h-10.7c-0.6-3.6-3-5.5-7.3-5.5 -1.8 0-3.3 0.4-4.6 1.2 -1.3 0.8-1.9 1.7-1.9 2.9 0 1.5 2.2 2.8 6.6 3.8 6.4 1.4 10.6 2.6 12.4 3.5C339.3 133.4 341.5 136.6 341.5 140.9z"/>
  <path fill="#231F20" d="M354.7 108.1h-10.8V98h10.8V108.1zM354.7 153.9h-10.8v-41h10.8V153.9z"/>
  <path fill="#231F20" d="M398.5 156.2c0 5.4-2.1 9.8-6.4 13.1 -3.9 2.9-8.6 4.4-14.1 4.4 -5.4 0-9.9-1.4-13.6-4.3 -4.1-3.2-6.1-7.6-6.1-13.2h10.1c0 2.6 0.9 4.7 2.8 6.2 1.6 1.3 3.7 2 6.2 2 2.7 0 5.1-0.8 7.1-2.3 2.2-1.7 3.3-4 3.3-6.8v-6.3c-0.8 1.8-2.2 3.3-4.2 4.3s-4.4 1.5-7 1.5c-4.2 0-7.9-1.2-11.1-3.5 -3.6-2.7-5.8-6.5-6.4-11.2 -0.5-3.6-0.7-6.3-0.7-8 0-3.5 0.8-6.9 2.3-10.2 1.4-3.1 3.6-5.5 6.5-7.3 2.9-1.8 5.9-2.7 9.1-2.7 5 0 8.8 2.1 11.3 6.3 0.1 0 0.1 0 0.2 0.1 0-0.1 0-0.7 0-1.9v-3.2h10.8V156.2zM388 134.4c0-8.8-3.1-13.2-9.2-13.2 -6.2 0-9.3 4.2-9.3 12.6 0 4 1 7.1 2.9 9.4 1.7 2.1 3.8 3.1 6.3 3.1 2.5 0 4.6-1 6.3-3C387.1 141 388 138.1 388 134.4z"/>
  <path fill="#231F20" d="M439.5 153.9h-10.8V129.2c0-2.9-0.4-4.9-1.3-6.1 -1.1-1.4-3-2.1-5.8-2.1 -5.6 0-8.4 3.2-8.4 9.5v23.5h-10.8v-41h10.5v3.8c0 1.5 0 2.2 0.1 2.2 0 0 0-0.1 0.1-0.1 1.3-2.3 3.1-4 5.5-5.3 2.4-1.3 4.9-1.9 7.6-1.9 5.4 0 9.4 2.1 11.8 6.4 1.1 2.1 1.7 4.5 1.7 7.4V153.9z"/>
  <path fill="#231F20" d="M479.5 140.9c0 2.9-0.7 5.5-2.2 7.6 -3.1 4.5-8.4 6.7-16 6.7 -5.2 0-9.6-1.2-13.3-3.5 -4.1-2.7-6.2-6.3-6.2-10.8h11.2c0 2 0.9 3.6 2.6 4.7 1.5 1 3.4 1.5 5.7 1.5 2 0 3.7-0.4 5.2-1.2 1.5-0.8 2.2-1.8 2.2-3.1 0-1.7-2.2-3-6.5-4 -6.5-1.5-10.5-2.6-12.2-3.5 -4.4-2.1-6.5-5.3-6.5-9.7 0-2.6 0.6-4.9 1.8-7 1.2-2.1 3.3-3.8 6.2-5 2.9-1.3 6.1-1.9 9.5-1.9 4.6 0 8.5 1.1 11.6 3.3 3.6 2.5 5.5 6 5.8 10.5h-10.7c-0.6-3.6-3-5.5-7.3-5.5 -1.7 0-3.3 0.4-4.6 1.2 -1.3 0.8-1.9 1.7-1.9 2.9 0 1.5 2.2 2.8 6.6 3.8 6.4 1.4 10.6 2.6 12.4 3.5C477.3 133.4 479.5 136.6 479.5 140.9z"/>
  <path fill="#231F20" d="M464.9 93.5h-3.9v10.7h-2.7V93.5h-3.9v-2.3h10.6V93.5z"/>
  <path fill="#231F20" d="M476.5 104.2h-2.6v-8.9l-2.4 8.9h-2.7l-2.4-8.9v8.9h-2.6V91.2h4l2.3 9.5 0 0 2.3-9.5h3.9V104.2z"/>
  <path fill="#231F20" d="M173.6 75c0.8 23.6-4.3 46-24.8 53.1 -15.5 5.3-39.2 3.4-37.5-18.3 0.3-4.8 1.9-9.5 4.2-12.4C126.3 83.2 161.9 86.3 173.6 75L173.6 75zM76 19.4c-1.6 4.5-4.3 15.4-4 24.4l41.2-0.1c2.3-8.5 3.8-14.5 10-19.5 13.1-10.5 44.5-6.3 48.8 7.1 6.9 21.5-19.4 22.6-36.8 25.3 -39.4 6.2-72 15.4-68.5 63.6 0.8 11.2 5.6 21.3 12 28 20.9 21.4 77.6 16 95.4-5.6l2.3 14.9h18.9c-14.8 22.8-42.7 37-69.4 39.6C64 202.9 12.1 146.3 27.1 82.5 34.1 52.9 51.5 32.7 76 19.4L76 19.4z"/>
</svg>